<svg xmlns="http://www.w3.org/2000/svg" viewBox="0 0 720 366" role="img" aria-label="STM32 GPIO 핀 한 개의 내부 회로 (RM0383 그림 기준 단순화)" font-family="var(--sans)" font-size="12">
<defs><marker id="ar" viewBox="0 0 10 10" refX="9" refY="5" markerWidth="7" markerHeight="7" orient="auto-start-reverse"><path d="M0 0L10 5L0 10z" fill="var(--text-dim)"/></marker></defs>
<line x1="80" y1="30" x2="700" y2="30" stroke="var(--text-dim)" stroke-width="1.5"/>
<text x="70" y="34" font-size="11" fill="var(--text-dim)" text-anchor="end" font-family="var(--mono)" font-weight="700">VDD</text>
<line x1="80" y1="318" x2="700" y2="318" stroke="var(--text-dim)" stroke-width="1.5"/>
<text x="70" y="322" font-size="11" fill="var(--text-dim)" text-anchor="end" font-family="var(--mono)" font-weight="700">VSS</text>
<circle cx="660" cy="174" r="14" fill="var(--bg-elev)" stroke="var(--accent)" stroke-width="2"/>
<text x="660" y="178" font-size="9.5" fill="var(--accent)" text-anchor="middle" font-family="var(--mono)" font-weight="700">I/O</text>
<text x="660" y="205" font-size="11.5" fill="var(--text)" text-anchor="middle" font-weight="700">PA5 핀</text>
<line x1="560" y1="174" x2="646" y2="174" stroke="var(--text)" stroke-width="2"/>
<line x1="610" y1="30" x2="610" y2="174" stroke="var(--border)" stroke-width="1.2"/>
<line x1="610" y1="174" x2="610" y2="318" stroke="var(--border)" stroke-width="1.2"/>
<path d="M604 60 L616 60 L610 48 Z" fill="var(--text-dim)"/>
<path d="M604 300 L616 300 L610 288 Z" fill="var(--text-dim)"/>
<text x="620" y="56" font-size="10" fill="var(--text-faint)">보호 다이오드</text>
<text x="620" y="296" font-size="10" fill="var(--text-faint)">(FT 핀은 위쪽 없음)</text>
<line x1="560" y1="30" x2="560" y2="60" stroke="var(--border)" stroke-width="1.5"/>
<rect x="553" y="60" width="14" height="34" rx="2" fill="var(--bg-elev-2)" stroke="var(--text-dim)" />
<text x="548" y="82" font-size="10" fill="var(--text-dim)" text-anchor="end">풀업 40 kΩ</text>
<line x1="560" y1="94" x2="560" y2="110" stroke="var(--border)" stroke-width="1.5"/>
<line x1="560" y1="110" x2="572" y2="126" stroke="var(--text-dim)" stroke-width="1.5"/>
<line x1="560" y1="130" x2="560" y2="174" stroke="var(--border)" stroke-width="1.5"/>
<text x="548" y="124" font-size="10" fill="var(--accent)" text-anchor="end" font-family="var(--mono)">PUPDR</text>
<line x1="560" y1="174" x2="560" y2="220" stroke="var(--border)" stroke-width="1.5"/>
<line x1="560" y1="220" x2="572" y2="236" stroke="var(--text-dim)" stroke-width="1.5"/>
<line x1="560" y1="240" x2="560" y2="254" stroke="var(--border)" stroke-width="1.5"/>
<rect x="553" y="254" width="14" height="34" rx="2" fill="var(--bg-elev-2)" stroke="var(--text-dim)" />
<text x="548" y="274" font-size="10" fill="var(--text-dim)" text-anchor="end">풀다운</text>
<text x="574" y="274" font-size="10" fill="var(--text-dim)">40 kΩ</text>
<line x1="560" y1="288" x2="560" y2="318" stroke="var(--border)" stroke-width="1.5"/>
<line x1="560" y1="174" x2="480" y2="174" stroke="var(--border)" stroke-width="1.5"/>
<line x1="480" y1="174" x2="480" y2="120" stroke="var(--border)" stroke-width="1.5"/>
<line x1="480" y1="120" x2="468" y2="120" stroke="var(--border)" stroke-width="1.5"/>
<path d="M468 104 L468 136 L436 120 Z" fill="var(--bg-elev-2)" stroke="var(--border)" stroke-width="1.5"/>
<text x="452" y="96" font-size="10" fill="var(--text-dim)" text-anchor="middle">TTL 슈미트 트리거</text>
<line x1="436" y1="120" x2="400" y2="120" stroke="var(--text-dim)" stroke-width="1.5"/>
<line x1="400" y1="120" x2="400" y2="100" stroke="var(--text-dim)" stroke-width="1.5"/>
<line x1="400" y1="100" x2="372" y2="100" stroke="var(--text-dim)" stroke-width="1.5" marker-end="url(#ar)"/>
<line x1="400" y1="120" x2="400" y2="140" stroke="var(--text-dim)" stroke-width="1.5"/>
<line x1="400" y1="140" x2="372" y2="140" stroke="var(--text-dim)" stroke-width="1.5" marker-end="url(#ar)"/>
<rect x="222" y="86" width="150" height="28" rx="6" fill="var(--bg-elev-2)" stroke="var(--border)" />
<text x="297.0" y="103.83333333333333" font-size="11.5" fill="var(--text)" text-anchor="middle" font-weight="700">입력 데이터 IDR</text>
<rect x="222" y="126" width="150" height="28" rx="6" fill="var(--bg-elev-2)" stroke="var(--border)" />
<text x="297.0" y="143.33333333333334" font-size="10" fill="var(--text)" text-anchor="middle" font-weight="700">AF 입력 (USART_RX · EXTI …)</text>
<text x="222" y="74" font-size="10.5" fill="var(--text-faint)">읽기 경로 (입력·AF 모드에서만 켜짐)</text>
<rect x="40" y="180" width="118" height="28" rx="6" fill="var(--bg-elev-2)" stroke="var(--border)" />
<text x="99.0" y="197.83333333333334" font-size="11.5" fill="var(--text)" text-anchor="middle" font-weight="700">ODR · BSRR</text>
<rect x="40" y="220" width="118" height="28" rx="6" fill="var(--bg-elev-2)" stroke="var(--border)" />
<text x="99.0" y="237.5" font-size="10.5" fill="var(--text)" text-anchor="middle" font-weight="700">AF 출력 (TIM_CH, TX …)</text>
<line x1="158" y1="194" x2="190" y2="194" stroke="var(--text-dim)" stroke-width="1.5" marker-end="url(#ar)"/>
<line x1="158" y1="234" x2="190" y2="234" stroke="var(--text-dim)" stroke-width="1.5" marker-end="url(#ar)"/>
<rect x="190" y="180" width="96" height="68" rx="6" fill="var(--bg-elev-2)" stroke="var(--border)" />
<text x="238" y="208" font-size="11.5" fill="var(--text)" text-anchor="middle" font-weight="700">출력 제어</text>
<text x="238" y="226" font-size="10" fill="var(--text-dim)" text-anchor="middle">MODER 로 선택</text>
<text x="238" y="240" font-size="10" fill="var(--text-dim)" text-anchor="middle">OTYPER · OSPEEDR</text>
<line x1="286" y1="214" x2="330" y2="214" stroke="var(--text-dim)" stroke-width="1.5" marker-end="url(#ar)"/>
<line x1="340" y1="30" x2="340" y2="160" stroke="var(--border)" stroke-width="1.5"/>
<rect x="326" y="160" width="28" height="40" rx="4" fill="var(--accent-soft)" stroke="var(--accent)" />
<text x="340" y="184" font-size="12" fill="var(--accent)" text-anchor="middle" font-family="var(--mono)" font-weight="700">P</text>
<line x1="340" y1="200" x2="340" y2="232" stroke="var(--text)" stroke-width="2"/>
<rect x="326" y="232" width="28" height="40" rx="4" fill="var(--accent-soft)" stroke="var(--accent)" />
<text x="340" y="256" font-size="12" fill="var(--accent)" text-anchor="middle" font-family="var(--mono)" font-weight="700">N</text>
<line x1="340" y1="272" x2="340" y2="318" stroke="var(--border)" stroke-width="1.5"/>
<line x1="340" y1="216" x2="480" y2="216" stroke="var(--text)" stroke-width="2"/>
<line x1="480" y1="216" x2="480" y2="174" stroke="var(--text)" stroke-width="2"/>
<text x="360" y="172" font-size="10" fill="var(--text-dim)">P-MOS → 1 (VDD)</text>
<text x="360" y="268" font-size="10" fill="var(--text-dim)">N-MOS → 0 (VSS)</text>
<text x="16" y="340" font-size="10" fill="var(--accent)">푸시풀 = P·N 모두 사용 (1 = VDD, 0 = VSS)  /  오픈드레인 = N 만 사용 (0 = VSS, 1 = 끊김 Hi-Z → 외부 풀업 필요)</text>
<line x1="500" y1="174" x2="500" y2="300" stroke="var(--border)" stroke-width="1.5" stroke-dasharray="4 3"/>
<line x1="500" y1="300" x2="372" y2="300" stroke="var(--border)" stroke-width="1.5" stroke-dasharray="4 3" marker-end="url(#ar)"/>
<rect x="222" y="286" width="150" height="28" rx="6" fill="var(--bg-elev-2)" stroke="var(--border)" />
<text x="297.0" y="303.6666666666667" font-size="11" fill="var(--text)" text-anchor="middle" font-weight="700">아날로그 ADC · DAC</text>
<text x="16" y="356" font-size="10" fill="var(--text-faint)">아날로그 모드: 슈미트·풀업·풀다운을 모두 끄고 핀을 직접 연결 (소비 전류 최소)</text>
</svg>
