<svg xmlns="http://www.w3.org/2000/svg" viewBox="0 0 720 266" role="img" aria-label="I2C 쓰기 트랜잭션: 주소 0x27 + W, 데이터 0x08" font-family="var(--sans)" font-size="12">
<defs><marker id="ar" viewBox="0 0 10 10" refX="9" refY="5" markerWidth="7" markerHeight="7" orient="auto-start-reverse"><path d="M0 0L10 5L0 10z" fill="var(--text-dim)"/></marker></defs>
<text x="360" y="26" font-size="11" fill="var(--text)" text-anchor="middle" font-weight="700">마스터가 SCL 을 만들고, 데이터는 SCL 이 0 일 때만 바뀝니다. ACK 는 슬레이브가 SDA 를 0 으로 당깁니다.</text>
<text x="48" y="112" font-size="11.5" fill="var(--text)" text-anchor="end" font-weight="700">SCL</text>
<text x="48" y="196" font-size="11.5" fill="var(--text)" text-anchor="end" font-weight="700">SDA</text>
<path d="M56 92 H116 V122 H124 V92 H138 V122 H146 V122 H154 V92 H168 V122 H176 V122 H184 V92 H198 V122 H206 V122 H214 V92 H228 V122 H236 V122 H244 V92 H258 V122 H266 V122 H274 V92 H288 V122 H296 V122 H304 V92 H318 V122 H326 V122 H334 V92 H348 V122 H356 V122 H364 V92 H378 V122 H386 V122 H394 V92 H408 V122 H416 V122 H424 V92 H438 V122 H446 V122 H454 V92 H468 V122 H476 V122 H484 V92 H498 V122 H506 V122 H514 V92 H528 V122 H536 V122 H544 V92 H558 V122 H566 V122 H574 V92 H588 V122 H596 V122 H604 V92 H618 V122 H626 V122 H634 V92 H648 V122 H656 V122 H664 V92 H710" fill="none" stroke="var(--text)" stroke-width="2" stroke-linejoin="round" />
<path d="M56 176 H100 V206 H116 V206 H146 V176 H176 V206 H206 V206 H236 V176 H266 V176 H296 V176 H326 V206 H356 V206 H386 V206 H416 V206 H446 V206 H476 V206 H506 V176 H536 V206 H566 V206 H596 V206 H626 V206 H656 V206 H674 V176 H710" fill="none" stroke="var(--text)" stroke-width="2" stroke-linejoin="round" />
<line x1="357" y1="206" x2="385" y2="206" stroke="var(--accent)" stroke-width="3.5"/>
<line x1="627" y1="206" x2="655" y2="206" stroke="var(--accent)" stroke-width="3.5"/>
<text x="100" y="66" font-size="10" fill="var(--danger)" text-anchor="middle" font-family="var(--mono)" font-weight="700">START</text>
<text x="674" y="66" font-size="10" fill="var(--ok)" text-anchor="middle" font-family="var(--mono)" font-weight="700">STOP</text>
<line x1="116" y1="76" x2="116" y2="218" stroke="var(--border)" stroke-width="0.8" stroke-dasharray="2 3"/>
<text x="131.0" y="66" font-size="9.5" fill="var(--text-dim)" text-anchor="middle" font-family="var(--mono)">A6</text>
<text x="131.0" y="160" font-size="11" fill="var(--text)" text-anchor="middle" font-family="var(--mono)" font-weight="700">0</text>
<line x1="146" y1="76" x2="146" y2="218" stroke="var(--border)" stroke-width="0.8" stroke-dasharray="2 3"/>
<text x="161.0" y="66" font-size="9.5" fill="var(--text-dim)" text-anchor="middle" font-family="var(--mono)">A5</text>
<text x="161.0" y="160" font-size="11" fill="var(--text)" text-anchor="middle" font-family="var(--mono)" font-weight="700">1</text>
<line x1="176" y1="76" x2="176" y2="218" stroke="var(--border)" stroke-width="0.8" stroke-dasharray="2 3"/>
<text x="191.0" y="66" font-size="9.5" fill="var(--text-dim)" text-anchor="middle" font-family="var(--mono)">A4</text>
<text x="191.0" y="160" font-size="11" fill="var(--text)" text-anchor="middle" font-family="var(--mono)" font-weight="700">0</text>
<line x1="206" y1="76" x2="206" y2="218" stroke="var(--border)" stroke-width="0.8" stroke-dasharray="2 3"/>
<text x="221.0" y="66" font-size="9.5" fill="var(--text-dim)" text-anchor="middle" font-family="var(--mono)">A3</text>
<text x="221.0" y="160" font-size="11" fill="var(--text)" text-anchor="middle" font-family="var(--mono)" font-weight="700">0</text>
<line x1="236" y1="76" x2="236" y2="218" stroke="var(--border)" stroke-width="0.8" stroke-dasharray="2 3"/>
<text x="251.0" y="66" font-size="9.5" fill="var(--text-dim)" text-anchor="middle" font-family="var(--mono)">A2</text>
<text x="251.0" y="160" font-size="11" fill="var(--text)" text-anchor="middle" font-family="var(--mono)" font-weight="700">1</text>
<line x1="266" y1="76" x2="266" y2="218" stroke="var(--border)" stroke-width="0.8" stroke-dasharray="2 3"/>
<text x="281.0" y="66" font-size="9.5" fill="var(--text-dim)" text-anchor="middle" font-family="var(--mono)">A1</text>
<text x="281.0" y="160" font-size="11" fill="var(--text)" text-anchor="middle" font-family="var(--mono)" font-weight="700">1</text>
<line x1="296" y1="76" x2="296" y2="218" stroke="var(--border)" stroke-width="0.8" stroke-dasharray="2 3"/>
<text x="311.0" y="66" font-size="9.5" fill="var(--text-dim)" text-anchor="middle" font-family="var(--mono)">A0</text>
<text x="311.0" y="160" font-size="11" fill="var(--text)" text-anchor="middle" font-family="var(--mono)" font-weight="700">1</text>
<line x1="326" y1="76" x2="326" y2="218" stroke="var(--border)" stroke-width="0.8" stroke-dasharray="2 3"/>
<text x="341.0" y="66" font-size="9.5" fill="var(--text-dim)" text-anchor="middle" font-family="var(--mono)">W</text>
<text x="341.0" y="160" font-size="11" fill="var(--text)" text-anchor="middle" font-family="var(--mono)" font-weight="700">0</text>
<line x1="356" y1="76" x2="356" y2="218" stroke="var(--border)" stroke-width="0.8" stroke-dasharray="2 3"/>
<text x="371.0" y="66" font-size="9.5" fill="var(--accent)" text-anchor="middle" font-family="var(--mono)">ACK</text>
<text x="371.0" y="160" font-size="11" fill="var(--text)" text-anchor="middle" font-family="var(--mono)" font-weight="700">0</text>
<line x1="386" y1="76" x2="386" y2="218" stroke="var(--border)" stroke-width="0.8" stroke-dasharray="2 3"/>
<text x="401.0" y="66" font-size="9.5" fill="var(--text-dim)" text-anchor="middle" font-family="var(--mono)">D7</text>
<text x="401.0" y="160" font-size="11" fill="var(--text)" text-anchor="middle" font-family="var(--mono)" font-weight="700">0</text>
<line x1="416" y1="76" x2="416" y2="218" stroke="var(--border)" stroke-width="0.8" stroke-dasharray="2 3"/>
<text x="431.0" y="66" font-size="9.5" fill="var(--text-dim)" text-anchor="middle" font-family="var(--mono)">D6</text>
<text x="431.0" y="160" font-size="11" fill="var(--text)" text-anchor="middle" font-family="var(--mono)" font-weight="700">0</text>
<line x1="446" y1="76" x2="446" y2="218" stroke="var(--border)" stroke-width="0.8" stroke-dasharray="2 3"/>
<text x="461.0" y="66" font-size="9.5" fill="var(--text-dim)" text-anchor="middle" font-family="var(--mono)">D5</text>
<text x="461.0" y="160" font-size="11" fill="var(--text)" text-anchor="middle" font-family="var(--mono)" font-weight="700">0</text>
<line x1="476" y1="76" x2="476" y2="218" stroke="var(--border)" stroke-width="0.8" stroke-dasharray="2 3"/>
<text x="491.0" y="66" font-size="9.5" fill="var(--text-dim)" text-anchor="middle" font-family="var(--mono)">D4</text>
<text x="491.0" y="160" font-size="11" fill="var(--text)" text-anchor="middle" font-family="var(--mono)" font-weight="700">0</text>
<line x1="506" y1="76" x2="506" y2="218" stroke="var(--border)" stroke-width="0.8" stroke-dasharray="2 3"/>
<text x="521.0" y="66" font-size="9.5" fill="var(--text-dim)" text-anchor="middle" font-family="var(--mono)">D3</text>
<text x="521.0" y="160" font-size="11" fill="var(--text)" text-anchor="middle" font-family="var(--mono)" font-weight="700">1</text>
<line x1="536" y1="76" x2="536" y2="218" stroke="var(--border)" stroke-width="0.8" stroke-dasharray="2 3"/>
<text x="551.0" y="66" font-size="9.5" fill="var(--text-dim)" text-anchor="middle" font-family="var(--mono)">D2</text>
<text x="551.0" y="160" font-size="11" fill="var(--text)" text-anchor="middle" font-family="var(--mono)" font-weight="700">0</text>
<line x1="566" y1="76" x2="566" y2="218" stroke="var(--border)" stroke-width="0.8" stroke-dasharray="2 3"/>
<text x="581.0" y="66" font-size="9.5" fill="var(--text-dim)" text-anchor="middle" font-family="var(--mono)">D1</text>
<text x="581.0" y="160" font-size="11" fill="var(--text)" text-anchor="middle" font-family="var(--mono)" font-weight="700">0</text>
<line x1="596" y1="76" x2="596" y2="218" stroke="var(--border)" stroke-width="0.8" stroke-dasharray="2 3"/>
<text x="611.0" y="66" font-size="9.5" fill="var(--text-dim)" text-anchor="middle" font-family="var(--mono)">D0</text>
<text x="611.0" y="160" font-size="11" fill="var(--text)" text-anchor="middle" font-family="var(--mono)" font-weight="700">0</text>
<line x1="626" y1="76" x2="626" y2="218" stroke="var(--border)" stroke-width="0.8" stroke-dasharray="2 3"/>
<text x="641.0" y="66" font-size="9.5" fill="var(--accent)" text-anchor="middle" font-family="var(--mono)">ACK</text>
<text x="641.0" y="160" font-size="11" fill="var(--text)" text-anchor="middle" font-family="var(--mono)" font-weight="700">0</text>
<line x1="656" y1="76" x2="656" y2="218" stroke="var(--border)" stroke-width="0.8" stroke-dasharray="2 3"/>
<line x1="118" y1="226" x2="354" y2="226" stroke="var(--text-dim)" stroke-width="1.5"/>
<line x1="118" y1="220" x2="118" y2="226" stroke="var(--text-dim)" stroke-width="1.5"/>
<line x1="354" y1="220" x2="354" y2="226" stroke="var(--text-dim)" stroke-width="1.5"/>
<text x="236.0" y="240" font-size="10.5" fill="var(--text-dim)" text-anchor="middle">주소 7비트 0x27 + R/W(0=쓰기) = 0x4E (HAL 8비트 주소)</text>
<line x1="388" y1="226" x2="624" y2="226" stroke="var(--text-dim)" stroke-width="1.5"/>
<line x1="388" y1="220" x2="388" y2="226" stroke="var(--text-dim)" stroke-width="1.5"/>
<line x1="624" y1="220" x2="624" y2="226" stroke="var(--text-dim)" stroke-width="1.5"/>
<text x="506.0" y="240" font-size="10.5" fill="var(--text-dim)" text-anchor="middle">데이터 0x08 (MSB 먼저)</text>
<text x="360" y="258" font-size="10" fill="var(--text-faint)" text-anchor="middle">START: SCL=1 에서 SDA 1→0  ·  STOP: SCL=1 에서 SDA 0→1  ·  9번째 클럭 = ACK(0) / NACK(1)  ·  두 선 모두 오픈드레인 + 풀업</text>
</svg>
